HIERARCHY
ROOT Hips
{
	OFFSET -3.958830 18.904000 13.208200
	CHANNELS 6 Xposition Yposition Zposition Zrotation Yrotation Xrotation 
	JOINT LHipJoint
	{
		OFFSET 0.000000 0.000000 0.000000
		CHANNELS 3 Zrotation Yrotation Xrotation
		JOINT LeftUpLeg
		{
			OFFSET 1.800000 -1.400000 0.085000
			CHANNELS 3 Zrotation Yrotation Xrotation
			JOINT LeftLeg
			{
				OFFSET 2.215000 -6.000000 0.000000
				CHANNELS 3 Zrotation Yrotation Xrotation
				JOINT LeftFoot
				{
					OFFSET 2.500000 -6.900000 0.000000
					CHANNELS 3 Zrotation Yrotation Xrotation
					JOINT LeftToeBase
					{
						OFFSET 0.200000 -0.500000 1.950000
						CHANNELS 3 Zrotation Yrotation Xrotation
						End Site
						{
							OFFSET 0.000000 0.000000 0.000000
						}
					}
				}
			}
		}
	}
	JOINT RHipJoint
	{
		OFFSET 0.000000 0.000000 0.000000
		CHANNELS 3 Zrotation Yrotation Xrotation
		JOINT RightUpLeg
		{
			OFFSET -1.800000 -1.400000 0.085000
			CHANNELS 3 Zrotation Yrotation Xrotation
			JOINT RightLeg
			{
				OFFSET -2.215000 -6.000000 0.000000
				CHANNELS 3 Zrotation Yrotation Xrotation
				JOINT RightFoot
				{
					OFFSET -2.500000 -6.900000 0.000000
					CHANNELS 3 Zrotation Yrotation Xrotation
					JOINT RightToeBase
					{
						OFFSET -0.200000 -0.500000 1.950000
						CHANNELS 3 Zrotation Yrotation Xrotation
						End Site
						{
							OFFSET 0.000000 0.000000 0.000000
						}
					}
				}
			}
		}
	}
	JOINT LowerBack
	{
		OFFSET 0.000000 0.000000 0.000000
		CHANNELS 3 Zrotation Yrotation Xrotation
		JOINT Spine
		{
			OFFSET -0.087000 1.940000 -0.288900
			CHANNELS 3 Zrotation Yrotation Xrotation
			JOINT Spine1
			{
				OFFSET 0.000000 1.950000 0.060000
				CHANNELS 3 Zrotation Yrotation Xrotation
				JOINT Neck
				{
					OFFSET 0.000000 0.000000 0.000000
					CHANNELS 3 Zrotation Yrotation Xrotation
					JOINT Neck1
					{
						OFFSET 0.000000 1.600000 0.340000
						CHANNELS 3 Zrotation Yrotation Xrotation
						JOINT Head
						{
							OFFSET 0.000000 1.667000 -0.240000
							CHANNELS 3 Zrotation Yrotation Xrotation
							End Site
							{
								OFFSET 0.000000 0.000000 0.000000
							}
						}
					}
				}
				JOINT LeftShoulder
				{
					OFFSET 0.000000 0.000000 0.000000
					CHANNELS 3 Zrotation Yrotation Xrotation
					JOINT LeftArm
					{
						OFFSET 2.700000 1.550000 -0.730000
						CHANNELS 3 Zrotation Yrotation Xrotation
						JOINT LeftForeArm
						{
							OFFSET 5.450000 0.000000 0.000000
							CHANNELS 3 Zrotation Yrotation Xrotation
							JOINT LeftHand
							{
								OFFSET 3.450000 0.000000 0.000000
								CHANNELS 3 Zrotation Yrotation Xrotation
								JOINT LeftHandIndex1
								{
									OFFSET 0.750000 0.000000 0.000000
									CHANNELS 3 Zrotation Yrotation Xrotation
									End Site
									{
										OFFSET 0.000000 0.000000 0.000000
									}
								}
							}
						}
					}
				}
				JOINT RightShoulder
				{
					OFFSET 0.000000 0.000000 0.000000
					CHANNELS 3 Zrotation Yrotation Xrotation
					JOINT RightArm
					{
						OFFSET -2.700000 1.550000 -0.730000
						CHANNELS 3 Zrotation Yrotation Xrotation
						JOINT RightForeArm
						{
							OFFSET -5.450000 0.000000 0.000000
							CHANNELS 3 Zrotation Yrotation Xrotation
							JOINT RightHand
							{
								OFFSET -3.450000 0.000000 0.000000
								CHANNELS 3 Zrotation Yrotation Xrotation
								JOINT RightHandIndex1
								{
									OFFSET -0.750000 0.000000 0.000000
									CHANNELS 3 Zrotation Yrotation Xrotation
									End Site
									{
										OFFSET 0.000000 0.000000 0.000000
									}
								}
							}
						}
					}
				}
			}
		}
	}
}
MOTION
Frames: 6
Frame Time: 0.016667
0.297890 16.797960 -2.129280 -5.503089 -3.050756 -4.308877 -14.586244 13.490417 3.338153 6.926103 -2.078417 -12.437094 -13.216321 8.482055 18.857321 0.375129 4.657813 2.783280 0.582100 0.289880 0.634000 18.584489 -11.518572 2.955471 1.042986 -0.307814 -6.091035 2.375264 -5.289564 19.899402 -0.639644 -3.594135 3.070400 -0.128540 -0.520790 0.268640 -4.749580 -0.928147 -7.923956 33.370216 -5.106819 14.183655 -28.158613 2.691958 -2.763483 13.602183 1.800895 -14.794708 0.038448 -7.463677 57.974969 -4.771950 -8.761080 -9.690020 -29.015299 -6.776396 3.019915 -43.602653 6.902656 -5.959972 -7.850402 -10.405962 -0.463277 -2.971410 3.225075 0.511650 -0.439590 0.504040 0.122170 -0.753737 11.595522 12.850673 16.894243 -16.398756 -11.336114 -44.786197 48.781380 -15.113053 2.364165 -1.626725 0.324750 -0.256750 -0.378340 -0.082680 
0.296380 16.794850 -2.130300 -5.493480 -3.032238 -4.401808 -14.596535 13.519914 3.351079 6.938363 -2.114676 -12.586072 -13.166160 8.549535 19.240915 0.387955 4.681945 2.769213 0.592560 0.300850 0.646680 18.566909 -11.510346 2.958715 1.000235 -0.288651 -6.066044 2.466140 -5.326939 20.062799 -0.649393 -3.598673 3.065230 -0.128680 -0.536000 0.269450 -4.710367 -0.983810 -7.949098 33.114291 -5.038794 14.527493 -27.881154 2.787043 -3.180051 13.630230 1.912866 -14.821937 0.354252 -7.677898 58.351067 -4.788660 -8.836550 -10.043490 -29.226103 -6.615363 2.948131 -43.612192 7.022725 -6.002436 -7.751268 -10.402932 -0.464871 -2.957969 3.228054 0.516460 -0.451620 0.516160 0.121970 -0.600479 11.504120 12.886832 17.390208 -16.547198 -11.502094 -46.076639 48.940782 -15.779741 2.367565 -1.609108 0.333670 -0.261940 -0.387720 -0.083060 
0.291140 16.787660 -2.131280 -5.498824 -3.077363 -4.499295 -14.621124 13.577672 3.384583 7.054615 -2.171884 -12.941598 -13.191273 8.709170 19.895757 0.413161 4.749321 2.738115 0.602490 0.309990 0.664290 18.528143 -11.483312 2.966936 0.987065 -0.222628 -6.084201 2.610029 -5.380077 20.378368 -0.662908 -3.603619 3.055214 -0.132730 -0.556220 0.275510 -4.619632 -1.107419 -8.007743 32.528312 -4.830076 15.176156 -27.230453 3.017721 -4.109457 13.727820 2.147129 -14.855416 1.080677 -8.140209 58.924857 -5.061970 -8.903760 -10.467190 -29.697580 -6.180957 2.760098 -43.612018 7.349455 -6.092204 -7.607547 -10.399365 -0.469967 -2.941184 3.228503 0.524220 -0.466890 0.536190 0.120980 -0.335322 11.254968 12.971900 18.454815 -16.811387 -11.823634 -48.836493 49.369134 -17.273740 2.370601 -1.569934 0.345770 -0.270900 -0.400160 -0.082640 
0.283340 16.777750 -2.132730 -5.537980 -3.110858 -4.610275 -14.657296 13.651940 3.428761 7.282518 -2.256513 -13.489873 -13.228956 8.950464 20.848130 0.434130 4.861329 2.686613 0.609070 0.313570 0.677020 18.476237 -11.436424 2.976704 1.024872 -0.136556 -6.109337 2.807837 -5.454515 20.772182 -0.673820 -3.612888 3.048638 -0.138070 -0.578490 0.275650 -4.494553 -1.287605 -8.082977 31.769435 -4.615679 16.009596 -26.311544 3.277019 -5.348216 13.841246 2.319498 -14.819339 1.760152 -8.614374 59.595938 -5.485280 -8.963680 -11.028940 -30.300659 -5.502391 2.463832 -43.688746 7.807133 -6.232322 -7.513203 -10.446404 -0.478878 -2.922208 3.225222 0.537930 -0.484200 0.551210 0.117510 0.049953 10.850033 13.020244 19.773365 -17.265920 -12.283490 -53.302544 50.445740 -19.942354 2.349257 -1.494260 0.352050 -0.277750 -0.406700 -0.087650 
0.273950 16.765650 -2.133220 -5.622139 -3.162733 -4.675636 -14.700816 13.729225 3.480098 7.601550 -2.349374 -14.172537 -13.286084 9.241406 21.920009 0.450750 5.006673 2.621986 0.604940 0.303730 0.680090 18.417426 -11.376027 2.987254 1.095396 -0.018748 -6.194599 3.102759 -5.560518 21.235115 -0.679308 -3.630470 3.040268 -0.146590 -0.595980 0.273590 -4.349464 -1.491157 -8.168261 30.906374 -4.340715 16.857789 -25.162854 3.595875 -6.800495 13.937800 2.443537 -14.706189 2.446329 -9.106613 60.252198 -5.994830 -9.034370 -11.472670 -31.009211 -4.578438 2.069551 -43.813313 8.378954 -6.408559 -7.442301 -10.539666 -0.490916 -2.908103 3.216473 0.554080 -0.498390 0.559640 0.111060 0.584688 10.249493 13.041877 21.255253 -17.854897 -12.781306 -59.224168 52.126180 -23.877723 2.301018 -1.371453 0.350150 -0.282930 -0.404570 -0.095300 
0.262600 16.749420 -2.132530 -5.721549 -3.197546 -4.643856 -14.748606 13.797706 3.538042 7.924488 -2.464144 -15.018427 -13.312042 9.558247 23.106969 0.475099 5.168158 2.555490 0.597220 0.285440 0.683530 18.355187 -11.316099 2.996717 1.198481 0.153819 -6.448110 3.402094 -5.678258 21.879592 -0.680899 -3.657418 3.029122 -0.160540 -0.608890 0.273980 -4.193964 -1.677428 -8.260454 29.863948 -4.007630 17.627871 -23.810829 3.951464 -8.380656 13.973663 2.599196 -14.520422 3.327798 -9.700783 60.581884 -6.524910 -9.068270 -11.608580 -31.729701 -3.421243 1.605616 -44.001349 9.046181 -6.634177 -7.385652 -10.645597 -0.500934 -2.897427 3.210669 0.565620 -0.508150 0.563310 0.105590 1.245311 9.391756 13.064521 22.868670 -18.433942 -13.178991 -66.490311 54.074830 -29.212336 2.235731 -1.199604 0.348140 -0.293070 -0.404330 -0.102240 
